[Header]
FileType HTR
DataType HTRS
FileVersion 1
NumSegments 22
NumFrames 5
DataFrameRate 24
EulerRotationOrder ZYX
CalibrationUnits mm
RotationUnits Degrees
GlobalAxisofGravity Y
BoneLengthAxis Y
ScaleFactor 1.0
[SegmentNames&Hierarchy]
reference	GLOBAL
Hips	reference
Spine	Hips
Spine1	Spine
Neck	Spine1
Head	Neck
LeftShoulder	Spine1
LeftArm	LeftShoulder
LeftForeArm	LeftArm
LeftHand	LeftForeArm
RightShoulder	Spine1
RightArm	RightShoulder
RightForeArm	RightArm
RightHand	RightForeArm
LeftUpLeg	Hips
LeftLeg	LeftUpLeg
LeftFoot	LeftLeg
LeftToeBase	LeftFoot
RightUpLeg	Hips
RightLeg	RightUpLeg
RightFoot	RightLeg
RightToeBase	RightFoot
[BasePosition]
reference	0	0	0	0	0	0	1
Hips	0	0	0	0	0	0	1
Spine	0	0	0	0	-0	90	1
Spine1	0	0	0	0	0	0	1
Neck	0	0	0	-7.352327771	-7.352327771	90	1
Head	0	0	0	0	-0	90	1
LeftShoulder	0	0	0	0	0	0	1
LeftArm	0	0	0	0	0	0	1
LeftForeArm	0	0	0	0	0	0	1
LeftHand	0	0	0	0	0	0	1
RightShoulder	0	0	0	0	-0	180	1
RightArm	0	0	0	0	-0	180	1
RightForeArm	0	0	0	0	-0	180	1
RightHand	0	0	0	0	-0	180	1
LeftUpLeg	0	0	0	0	-0	-90	1
LeftLeg	0	0	0	0	-0	-90	1
LeftFoot	0	0	0	66.57146043	-66.57146043	-90	1
LeftToeBase	0	0	0	0	-90	0	1
RightUpLeg	0	0	0	0	-0	-90	1
RightLeg	0	0	0	0	-0	-90	1
RightFoot	0	0	0	66.57146043	-66.57146043	-90	1
RightToeBase	0	0	0	0	-90	0	1
[reference]
29	0	0	0	0	-0	0	1.0
30	0	0	0	0	-0	0	1.0
31	0	0	0	0	-0	0	1.0
32	0	0	0	0	-0	0	1.0
33	0	0	0	0	-0	0	1.0
[Hips]
29	5.584169388	8.427199364	2.435458183	0.5232012868	-112.5754013	1.35315156	1.0
30	5.288300514	8.445610046	2.274023533	0.8271003962	-113.4630051	0.5787923932	1.0
31	4.986119747	8.47127533	2.097559929	0.6576843262	-114.9179001	0.1786804199	1.0
32	4.693359375	8.491314888	1.895071387	-0.4178309143	-117.1703186	0.6213799119	1.0
33	4.433865547	8.406406403	1.698788524	-1.431316733	-119.540123	1.199979424	1.0
[Spine]
29	0	0.7457100153	0	-3.814806223	-2.883265018	-91.21909332	1.0
30	0	0.7457100153	0	-4.488266468	-3.072978973	-91.10827637	1.0
31	0	0.7457100153	0	-4.719120979	-2.932760477	-90.83963013	1.0
32	0	0.7457100153	0	-5.026949406	-2.518024921	-90.62760925	1.0
33	0	0.7457100153	0	-5.188381195	-2.385712385	-90.60214996	1.0
[Spine1]
29	0	2.140589952	0	8.721412659	-1.001180291	0.7097456455	1.0
30	0	2.140589952	0	8.926085472	-1.057459474	0.4418425858	1.0
31	0	2.140589952	0	8.508832932	-0.9933992624	0.2534066737	1.0
32	0	2.140589952	0	8.19115448	-0.8539008498	0.2489893138	1.0
33	0	2.140589952	0	8.010363579	-0.8169083595	0.4541292787	1.0
[Neck]
29	0	2.32246995	0	-14.61343384	2.540287733	-90.79528809	1.0
30	0	2.32246995	0	-12.77783585	2.071679354	-90.74475098	1.0
31	0	2.32246995	0	-10.71496677	1.652335405	-90.79380798	1.0
32	0	2.32246995	0	-8.25535965	1.380582094	-90.49842072	1.0
33	0	2.32246995	0	-6.948252201	1.349903226	-90.07615662	1.0
[Head]
29	0	1.409579992	0.1818799973	-5.771883488	-4.909807205	-90.36068726	1.0
30	0	1.409579992	0.1818799973	-5.986975193	-5.418843269	-90.09688568	1.0
31	0	1.409579992	0.1818799973	-5.595696449	-5.890300751	-89.66217041	1.0
32	0	1.409579992	0.1818799973	-5.754827976	-6.202633858	-89.2503891	1.0
33	0	1.409579992	0.1818799973	-5.797081947	-6.257735252	-88.88569641	1.0
[LeftShoulder]
29	0.3668199778	1.946700096	-0.02662999928	-16.22772026	-13.78721523	-5.054866314	1.0
30	0.3668199778	1.946700096	-0.02662999928	-15.76853657	-13.32841682	-4.663064003	1.0
31	0.3668199778	1.946700096	-0.02662999928	-15.50525188	-13.00565147	-4.434945583	1.0
32	0.3668199778	1.946700096	-0.02662999928	-15.29623222	-12.51810265	-4.083021164	1.0
33	0.3668199778	1.946700096	-0.02662999928	-15.30239677	-12.3348999	-3.957285166	1.0
[LeftArm]
29	1.140689969	0	0	42.33693695	15.26489735	-74.12358093	1.0
30	1.140689969	0	0	42.2574234	15.03872108	-74.14476013	1.0
31	1.140689969	0	0	41.68711472	15.42496872	-74.15159607	1.0
32	1.140689969	0	0	40.78347778	15.76271057	-74.3194809	1.0
33	1.140689969	0	0	40.06563568	16.10596085	-74.23188782	1.0
[LeftForeArm]
29	2.749800205	0	0	-14.23124599	-11.45523643	1.291195869	1.0
30	2.749800205	0	0	-13.81708813	-13.01304817	1.275753856	1.0
31	2.749800205	0	0	-13.31351185	-14.39659691	1.305753112	1.0
32	2.749800205	0	0	-13.05772591	-15.31975174	1.459592223	1.0
33	2.749800205	0	0	-13.28166676	-15.97728252	1.936596274	1.0
[LeftHand]
29	2.295179844	0	0	-14.12736797	-1.337148428	2.214439869	1.0
30	2.295179844	0	0	-13.69034481	-3.120212793	0.6950591207	1.0
31	2.295179844	0	0	-13.14821625	-4.269124508	-0.008176544681	1.0
32	2.295179844	0	0	-12.85543728	-4.523010254	-0.1496617943	1.0
33	2.295179844	0	0	-13.01585293	-4.605828285	0.1525251865	1.0
[RightShoulder]
29	-0.3601199985	1.946700096	-0.02662999928	-5.666243076	3.336514235	177.0706635	1.0
30	-0.3601199985	1.946700096	-0.02662999928	-5.066618919	3.106699944	177.1290131	1.0
31	-0.3601199985	1.946700096	-0.02662999928	-4.810939789	2.774662256	176.9737549	1.0
32	-0.3601199985	1.946700096	-0.02662999928	-4.153793335	2.864697456	177.0391846	1.0
33	-0.3601199985	1.946700096	-0.02662999928	-4.41140604	2.702169895	176.9485779	1.0
[RightArm]
29	-1.140689969	0	0	45.31051636	-5.565964699	-99.17569733	1.0
30	-1.140689969	0	0	44.60264969	-6.582113266	-99.03759003	1.0
31	-1.140689969	0	0	43.53181458	-7.866780281	-98.85007477	1.0
32	-1.140689969	0	0	43.24940109	-8.335114479	-98.9841156	1.0
33	-1.140689969	0	0	44.08934402	-8.524163246	-99.05838013	1.0
[RightForeArm]
29	-2.749800205	0	0	-0.8122287989	11.1303997	180.2122955	1.0
30	-2.749800205	0	0	-0.8633791208	10.55678082	180.7084198	1.0
31	-2.749800205	0	0	-0.542194128	10.18820381	181.4697876	1.0
32	-2.749800205	0	0	-0.1058321446	10.13360691	182.2039795	1.0
33	-2.749800205	0	0	0.1877828389	10.15241241	182.4701233	1.0
[RightHand]
29	-2.295179844	0	0	-1.174634099	7.117470741	174.5095673	1.0
30	-2.295179844	0	0	-1.239529729	6.802651882	174.7765961	1.0
31	-2.295179844	0	0	-0.9300917387	6.719516277	175.6292877	1.0
32	-2.295179844	0	0	-0.4944899678	6.658777714	176.6839905	1.0
33	-2.295179844	0	0	-0.1766989529	6.863139153	177.5656586	1.0
[LeftUpLeg]
29	0.9094099998	0	0	14.43008995	13.09133053	89.6241684	1.0
30	0.9094099998	0	0	14.19594097	15.61419201	90.96977997	1.0
31	0.9094099998	0	0	12.97568703	16.0236702	92.33966064	1.0
32	0.9094099998	0	0	10.0237627	15.45604801	94.80378723	1.0
33	0.9094099998	0	0	4.842594624	14.28738976	97.32314301	1.0
[LeftLeg]
29	0	-4.498080254	0	14.38200855	-6.246520996	85.80269623	1.0
30	0	-4.498080254	0	20.36143684	-3.891285419	85.61271667	1.0
31	0	-4.498080254	0	28.47608948	0.4447042346	86.88404846	1.0
32	0	-4.498080254	0	40.05279541	1.11722362	84.80995178	1.0
33	0	-4.498080254	0	53.86031723	2.093553782	82.35018921	1.0
[LeftFoot]
29	0	-3.729400158	0	-76.28526306	101.8416977	-25.1681366	1.0
30	0	-3.729400158	0	-79.2574234	99.54621124	-32.42458725	1.0
31	0	-3.729400158	0	-103.3493195	95.25911713	-63.44207382	1.0
32	0	-3.729400158	0	-102.9382401	93.54283142	-69.71242523	1.0
33	0	-3.729400158	0	-4.391769409	92.07962036	19.2780304	1.0
[LeftToeBase]
29	0	-0.5911099911	1.364109993	0	0	0	1.0
30	0	-0.5911099911	1.364109993	0	0	0	1.0
31	0	-0.5911099911	1.364109993	0	0	0	1.0
32	0	-0.5911099911	1.364109993	0	0	0	1.0
33	0	-0.5911099911	1.364109993	0	0	0	1.0
[RightUpLeg]
29	-0.9094099998	0	0	-21.74651718	-9.147824287	100.2435837	1.0
30	-0.9094099998	0	0	-20.25688744	-6.256972313	99.75061035	1.0
31	-0.9094099998	0	0	-18.47349167	-4.422895432	100.1527405	1.0
32	-0.9094099998	0	0	-17.48442459	-1.853611469	101.3707581	1.0
33	-0.9094099998	0	0	-16.76698303	0.2082582861	102.6611023	1.0
[RightLeg]
29	0	-4.498080254	0	14.92409706	-1.064020753	87.3057251	1.0
30	0	-4.498080254	0	17.28868294	-0.5143018961	86.5021286	1.0
31	0	-4.498080254	0	20.24664688	0.1029080898	85.25370789	1.0
32	0	-4.498080254	0	24.85958481	2.436626434	84.41355133	1.0
33	0	-4.498080254	0	29.69657326	4.770748138	84.51538849	1.0
[RightFoot]
29	0	-3.729400158	0	49.4266777	67.92062378	79.89104462	1.0
30	0	-3.729400158	0	43.60667038	66.82313538	74.81800079	1.0
31	0	-3.729400158	0	41.48952866	66.90110779	75.72961426	1.0
32	0	-3.729400158	0	34.51799774	66.41761017	71.72077942	1.0
33	0	-3.729400158	0	26.52287674	65.38789368	67.4096756	1.0
[RightToeBase]
29	0	-0.5911099911	1.364109993	0	0	0	1.0
30	0	-0.5911099911	1.364109993	0	0	0	1.0
31	0	-0.5911099911	1.364109993	0	0	0	1.0
32	0	-0.5911099911	1.364109993	0	0	0	1.0
33	0	-0.5911099911	1.364109993	0	0	0	1.0
[EndOfFile]
